<?xml version="1.0" encoding="UTF-8"?>
<svg width="140px" height="140px" viewBox="0 0 140 140" version="1.1" xmlns="http://www.w3.org/2000/svg" xmlns:xlink="http://www.w3.org/1999/xlink">
    <title>Group 3</title>
    <g id="DA-V2" stroke="none" stroke-width="1" fill="none" fill-rule="evenodd">
        <g id="SHOTGUN-DA-v2b-3" transform="translate(-1567.000000, -776.000000)" stroke="#0E0E0E" stroke-width="1.5">
            <g id="Group-3" transform="translate(1569.000000, 778.000000)">
                <path d="M75.7264022,64.8001065 C96.9508536,43.35699 116.084754,22.7147173 116.084754,19.9152457 C113.285283,19.9152457 92.6444028,39.0505392 71.1998935,60.2735978 C71.0452958,30.1033724 69.9798253,1.9791289 68.0006964,0 C66.0215675,1.9791289 64.956097,30.1033724 64.8001065,60.2735978 C43.35699,39.0505392 22.7161101,19.9152457 19.9180313,19.9152457 L19.9166385,19.9152457 C19.9166385,22.7147173 39.0505392,43.35699 60.2749905,64.8001065 C30.1033724,64.9547042 1.9791289,66.0215675 0,67.9993036 C1.9791289,69.9784325 30.1033724,71.043903 60.2749905,71.1998935 C39.0505392,92.6444028 19.9166385,113.285283 19.9166385,116.081969 L19.9180313,116.081969 C22.7161101,116.081969 43.35699,96.9508536 64.8001065,75.7250095 C64.956097,105.896628 66.0215675,134.020871 68.0006964,136 C69.9798253,134.020871 71.0452958,105.896628 71.1998935,75.7250095 C92.6444028,96.9508536 113.285283,116.081969 116.084754,116.081969 C116.084754,113.285283 96.9508536,92.6444028 75.7264022,71.1998935 C105.89802,71.043903 134.022264,69.9784325 136,67.9993036 C134.022264,66.0215675 105.89802,64.9547042 75.7264022,64.8001065" id="Fill-1"></path>
            </g>
        </g>
    </g>
</svg>