<?xml version="1.0" encoding="UTF-8"?>
<svg width="173px" height="174px" viewBox="0 0 173 174" version="1.1" xmlns="http://www.w3.org/2000/svg" xmlns:xlink="http://www.w3.org/1999/xlink">
    <title>Fill 1</title>
    <g id="DA-V2" stroke="none" stroke-width="1" fill="none" fill-rule="evenodd">
        <g id="SHOTGUN-DA-v2b-3" transform="translate(-217.000000, -759.000000)" stroke="#0E0E0E" stroke-width="1.2">
            <polygon id="Fill-1" points="302.609097 760 301.902031 827.212046 289.850482 761.091443 299.130332 827.656824 277.396692 764.085024 296.456051 828.517991 265.524267 768.901882 293.938896 829.770311 254.503464 775.444228 291.632289 831.379085 244.573114 783.566959 289.595939 833.319077 235.959478 793.077651 287.867555 835.536661 228.857392 803.77442 286.491133 837.993985 223.423982 815.411217 285.491813 840.631112 219.778664 827.732531 284.894735 843.384954 218 840.463925 284.715612 846.195576 218.131986 853.318344 284.9513 849.003044 220.171478 866.005575 285.604943 851.741114 224.074483 878.251183 286.660829 854.35616 229.749867 889.77442 288.087531 856.785093 237.071929 900.31662 289.863052 858.967979 245.880401 909.647508 291.940255 860.860654 255.974162 917.558889 294.278287 862.425265 267.12695 923.870961 296.820583 863.620805 279.096793 928.441771 299.510576 864.428346 291.613434 931.173532 302.291703 864.816344 304.390903 932 305.101112 864.787954 317.15266 930.902248 307.872811 864.340021 329.603308 927.911822 310.543949 863.482009 341.475733 923.094964 313.057962 862.229689 352.499678 916.552617 315.364569 860.620915 362.426886 908.433041 317.404061 858.680923 371.037379 898.919195 319.132445 856.460184 378.139465 888.222426 320.508867 854.006015 383.576018 876.585629 321.51133 851.368888 387.224479 864.264314 322.105265 848.615046 389 851.536075 389 851.536075 322.284388 845.801269 388.868014 838.681656 322.045557 842.996956 386.825379 825.99127 321.391914 840.252577 382.925517 813.745663 320.339171 837.640685 377.253276 802.22558 318.912469 835.214907 369.928071 791.680226 317.136948 833.032021 361.122742 782.349338 315.059745 831.133037 351.025838 774.437956 312.721713 829.571581 339.869907 768.125885 310.18256 828.376041 327.903207 763.555075 307.489424 827.571654 315.389709 760.826468 304.71144 827.180501"></polygon>
        </g>
    </g>
</svg>