<svg width="199" height="127" viewBox="0 0 199 127" fill="none" xmlns="http://www.w3.org/2000/svg">
<path fill-rule="evenodd" clip-rule="evenodd" d="M144.108 107.69C123.497 107.046 99.4993 102.747 99.4993 89.5853C99.4993 102.747 75.5027 107.046 54.8907 107.69C41.1747 108.119 0 108.148 0 108.148C0 108.148 41.1747 108.177 54.8907 108.605C75.5027 109.248 99.4993 113.55 99.4993 126.708C99.4993 113.55 123.497 109.248 144.108 108.605C157.824 108.177 199 108.148 199 108.148C199 108.148 157.824 108.119 144.108 107.69Z" fill="#f7f7ff"/>
<path fill-rule="evenodd" clip-rule="evenodd" d="M123.266 64.0528C112.285 63.4097 99.4992 59.1092 99.4992 45.9494C99.4992 59.1092 86.7141 63.4097 75.7323 64.0528C68.4247 64.4811 46.4873 64.511 46.4873 64.511C46.4873 64.511 68.4247 64.5393 75.7323 64.9676C86.7141 65.6122 99.4992 69.9127 99.4992 83.0725C99.4992 69.9127 112.285 65.6122 123.266 64.9676C130.574 64.5393 152.512 64.511 152.512 64.511C152.512 64.511 130.574 64.4811 123.266 64.0528Z" fill="#f7f7ff"/>
<path fill-rule="evenodd" clip-rule="evenodd" d="M115.223 18.4646C107.958 17.82 99.5001 13.5209 99.5001 0.359673C99.5001 13.5209 91.0423 17.82 83.7774 18.4646C78.9431 18.8914 64.4307 18.9227 64.4307 18.9227C64.4307 18.9227 78.9431 18.9511 83.7774 19.3793C91.0423 20.0225 99.5001 24.323 99.5001 37.4827C99.5001 24.323 107.958 20.0225 115.223 19.3793C120.057 18.9511 134.57 18.9227 134.57 18.9227C134.57 18.9227 120.057 18.8914 115.223 18.4646Z" fill="#f7f7ff"/>
</svg>
