<?xml version="1.0" encoding="UTF-8"?>
<svg id="Layer_2" data-name="Layer 2" xmlns="http://www.w3.org/2000/svg" viewBox="0 0 450.65 524.81">
  <defs>
    <style>
      .cls-1 {
        fill: #fff;
      }
    </style>
  </defs>
  <g id="Layer_1-2" data-name="Layer 1">
    <path class="cls-1" d="M450.65,66.31c0-3.18-1.73-6.12-4.52-7.66-22.56-12.47-29.49-21.78-39.02-52.5-1.14-3.66-4.52-6.16-8.36-6.16s-7.22,2.5-8.36,6.16c-9.53,30.68-16.46,40-39.02,52.5-2.79,1.54-4.52,4.47-4.52,7.66s1.73,6.12,4.52,7.66c22.56,12.46,29.48,21.77,39.02,52.5,1.14,3.66,4.52,6.16,8.36,6.16s7.22-2.5,8.36-6.16c9.55-30.69,16.48-40,39.02-52.5,2.79-1.54,4.52-4.48,4.52-7.66h0Zm-51.91,32.16c-5.46-13.08-14.65-24.27-26.41-32.16,11.77-7.9,20.95-19.08,26.41-32.16,5.46,13.08,14.66,24.27,26.43,32.16-11.77,7.89-20.97,19.08-26.43,32.16Z"/>
    <path class="cls-1" d="M255.96,100.36v-12.1c-.02-9.5-3.28-18.7-9.25-26.08-5.97-7.38-14.28-12.5-23.56-14.51V8.78c0-4.83-3.92-8.75-8.75-8.75s-8.75,3.92-8.75,8.75V47.67c-9.28,2-17.59,7.12-23.56,14.51-5.97,7.38-9.23,16.59-9.25,26.08v12.1c-46.09,9.06-87.93,33.03-119.06,68.21C22.64,203.75,3.95,248.19,.56,295.04c-3.39,46.86,8.72,93.52,34.47,132.82-4.38,9.46-12.03,17.01-21.54,21.27-2.79,1.54-4.52,4.47-4.52,7.66s1.73,6.12,4.52,7.66c15.95,8.81,20.56,15.02,27.37,36.93,1.14,3.66,4.52,6.16,8.36,6.16s7.22-2.5,8.36-6.16c2.2-11.21,7.8-21.47,16.03-29.39,33.12,28.9,74.33,46.91,118.03,51.6,43.71,4.68,87.79-4.19,126.29-25.41,38.49-21.22,69.52-53.77,88.89-93.23,19.36-39.46,26.12-83.92,19.35-127.35-6.76-43.43-26.72-83.73-57.16-115.44-30.45-31.7-69.91-53.27-113.03-61.79h0Zm140.88,136.5c-20.41-5.17-41.08-9.22-61.92-12.16-3.5-27.66-9.32-54.98-17.41-81.67,35.75,22.07,63.54,54.94,79.37,93.85l-.04-.03Zm-74.04,69.07c.02,25.18-1.52,50.33-4.59,75.31-31.55,3.8-63.29,5.82-95.06,6.04V234.01c32.11,.22,64.18,2.27,96.05,6.13,2.39,21.85,3.59,43.82,3.61,65.8h0Zm-27.8-174.82c10.48,29.54,17.83,60.1,21.95,91.18-31.14-3.62-62.46-5.55-93.81-5.77V114c24.82,1.09,49.21,6.89,71.86,17.1h0Zm-183.75,11.96c-8.08,26.69-13.9,54.01-17.4,81.67-20.85,2.93-41.52,6.99-61.93,12.16,15.82-38.9,43.6-71.75,79.32-93.83h0ZM17.53,310.66c0-18.18,2.54-36.28,7.52-53.77,21.92-6.16,44.21-10.9,66.73-14.2-4.67,45.24-4.34,90.86,1,136.04-22.84-3.31-45.45-8.11-67.67-14.36-5-17.46-7.55-35.54-7.58-53.71h0Zm31.72,164.2c-3.64-7.11-8.85-13.29-15.24-18.07,6.39-4.78,11.6-10.96,15.24-18.06,3.64,7.1,8.85,13.28,15.24,18.06-6.39,4.78-11.6,10.96-15.24,18.07Zm38.91-13.46h0c1.28-2.03,1.66-4.5,1.05-6.82-.6-2.32-2.14-4.29-4.24-5.44-15.95-8.82-20.56-15.03-27.37-36.94-1.15-3.65-4.53-6.13-8.36-6.12-2.13,.02-4.18,.83-5.75,2.27-4.42-7.71-8.31-15.71-11.65-23.95,20.85,5.29,41.98,9.41,63.29,12.38,4.01,28.4,10.62,56.38,19.75,83.57-9.42-5.56-18.36-11.9-26.73-18.95h0Zm117.5,45.74c-23.25-1-46.14-6.12-67.6-15.14-11.84-29.9-20.18-61.06-24.86-92.88,30.69,3.54,61.56,5.43,92.46,5.67v102.34Zm0-119.88c-31.77-.22-63.51-2.24-95.06-6.04-5.78-46.84-6.11-94.19-.99-141.1,31.87-3.85,63.94-5.89,96.05-6.1v153.24Zm0-170.74c-31.35,.23-62.67,2.17-93.81,5.81,4.12-31.09,11.48-61.66,21.95-91.21,22.65-10.21,47.04-16.02,71.86-17.1v102.51Zm-15.31-118.84v-9.41c0-8.6,4.59-16.54,12.03-20.84,7.45-4.3,16.62-4.3,24.06,0,7.45,4.3,12.03,12.24,12.03,20.84v9.41c-15.99-1.84-32.14-1.84-48.12,0h0Zm32.81,409.65v-102.53c30.9-.24,61.77-2.13,92.46-5.67-4.69,31.87-13.05,63.09-24.92,93.03-21.43,9.03-44.3,14.17-67.54,15.17h0Zm90.71-26.86c9.16-27.24,15.79-55.26,19.8-83.72,21.29-2.95,42.41-7.08,63.25-12.36-16.38,40.28-45.56,74.04-83.05,96.08h0Zm22.16-101.73c2.82-24.16,4.24-48.46,4.25-72.79-.03-21.12-1.12-42.23-3.28-63.24,22.52,3.3,44.81,8.04,66.73,14.2,10.02,35.12,10.02,72.35,0,107.47-22.23,6.25-44.84,11.05-67.7,14.37h0Z"/>
    <path class="cls-1" d="M238.83,311.32c13.27,7.32,17.76,12.21,24.09,32.56,1.14,3.66,4.52,6.16,8.36,6.16s7.22-2.5,8.36-6.16c6.33-20.35,10.82-25.23,24.09-32.56,2.79-1.54,4.52-4.47,4.52-7.66s-1.73-6.12-4.52-7.66c-13.27-7.33-17.76-12.25-24.09-32.57-1.14-3.66-4.52-6.16-8.36-6.16s-7.22,2.5-8.36,6.16c-6.33,20.35-10.82,25.23-24.09,32.57-2.79,1.54-4.52,4.47-4.52,7.66s1.73,6.12,4.52,7.66Zm32.45-22.04c3.09,5.55,7.26,10.44,12.25,14.38-4.99,3.94-9.16,8.82-12.25,14.38-3.09-5.55-7.26-10.44-12.25-14.38,4.99-3.94,9.16-8.82,12.25-14.38Z"/>
  </g>
</svg>